<?xml version="1.0" standalone="no"?>
<!DOCTYPE svg PUBLIC "-//W3C//DTD SVG 20010904//EN"
 "http://www.w3.org/TR/2001/REC-SVG-20010904/DTD/svg10.dtd">
<svg version="1.0" xmlns="http://www.w3.org/2000/svg"
 width="200.000000pt" height="192.000000pt" viewBox="0 0 200.000000 192.000000"
 preserveAspectRatio="xMidYMid meet">

<g transform="translate(0.000000,192.000000) scale(0.100000,-0.100000)"
fill="#000000" stroke="none">
<path d="M583 1760 c-158 -12 -260 -76 -323 -204 -41 -83 -49 -174 -49 -566 0
-389 8 -483 48 -563 36 -73 75 -117 136 -153 96 -56 122 -59 590 -59 463 0
494 3 588 53 62 33 122 99 154 169 36 79 46 236 40 653 -6 372 -10 408 -62
496 -37 63 -77 99 -151 135 -53 26 -81 33 -171 40 -126 9 -666 9 -800 -1z
m546 -389 c125 -39 212 -116 273 -239 31 -62 33 -73 33 -172 0 -98 -2 -109
-30 -159 -40 -72 -99 -131 -160 -161 -43 -22 -64 -25 -155 -25 -87 0 -113 4
-152 22 -102 47 -182 155 -195 264 l-6 49 -89 0 c-104 0 -106 2 -84 89 44 172
157 293 315 336 70 20 180 18 250 -4z"/>
<path d="M1010 1088 c-77 -53 -99 -130 -58 -207 57 -109 202 -109 276 -1 45
66 10 174 -68 215 -44 22 -111 19 -150 -7z"/>
</g>
</svg>
